<?xml version="1.0" encoding="UTF-8" standalone="no"?>
<!-- Created with Inkscape (http://www.inkscape.org/) -->

<svg
   xmlns:dc="http://purl.org/dc/elements/1.1/"
   xmlns:cc="http://creativecommons.org/ns#"
   xmlns:rdf="http://www.w3.org/1999/02/22-rdf-syntax-ns#"
   xmlns:svg="http://www.w3.org/2000/svg"
   xmlns="http://www.w3.org/2000/svg"
   xmlns:sodipodi="http://sodipodi.sourceforge.net/DTD/sodipodi-0.dtd"
   xmlns:inkscape="http://www.inkscape.org/namespaces/inkscape"
   version="1.1"
   id="svg815"
   xml:space="preserve"
   width="396.85068"
   height="264.56668"
   viewBox="0 0 396.85068 264.56668"
   sodipodi:docname="plaque_trou_control_mot.svg"
   inkscape:version="0.92.3 (2405546, 2018-03-11)"><metadata
     id="metadata821"><rdf:RDF><cc:Work
         rdf:about=""><dc:format>image/svg+xml</dc:format><dc:type
           rdf:resource="http://purl.org/dc/dcmitype/StillImage" /><dc:title></dc:title></cc:Work></rdf:RDF></metadata><defs
     id="defs819" /><sodipodi:namedview
     pagecolor="#ffffff"
     bordercolor="#666666"
     borderopacity="1"
     objecttolerance="10"
     gridtolerance="10"
     guidetolerance="10"
     inkscape:pageopacity="0"
     inkscape:pageshadow="2"
     inkscape:window-width="1600"
     inkscape:window-height="836"
     id="namedview817"
     showgrid="false"
     inkscape:zoom="2.4795261"
     inkscape:cx="198.42534"
     inkscape:cy="132.28334"
     inkscape:window-x="0"
     inkscape:window-y="27"
     inkscape:window-maximized="1"
     inkscape:current-layer="g823" /><g
     id="g823"
     inkscape:groupmode="layer"
     inkscape:label="plaque_trou_control_mot"
     transform="matrix(1.3333333,0,0,-1.3333333,0,264.56667)"><path
       d="M 283.465,184.252 H 14.173 V 14.173 H 283.465 V 184.252 M 34.016,170.079 c 0,-1.337 -0.554,-2.902 -1.661,-4.009 -1.107,-1.107 -2.672,-1.661 -4.009,-1.661 -1.336,0 -2.901,0.554 -4.008,1.661 -1.107,1.107 -1.661,2.672 -1.661,4.009 0,1.336 0.554,2.902 1.661,4.009 1.107,1.107 2.672,1.66 4.008,1.66 1.337,0 2.902,-0.553 4.009,-1.66 1.107,-1.107 1.661,-2.673 1.661,-4.009 m 240.945,0 c 0,-1.337 -0.554,-2.902 -1.661,-4.009 -1.107,-1.107 -2.672,-1.661 -4.009,-1.661 -1.336,0 -2.901,0.554 -4.008,1.661 -1.107,1.107 -1.661,2.672 -1.661,4.009 0,1.336 0.554,2.902 1.661,4.009 1.107,1.107 2.672,1.66 4.008,1.66 1.337,0 2.902,-0.553 4.009,-1.66 1.107,-1.107 1.661,-2.673 1.661,-4.009 M 34.016,28.346 c 0,-1.336 -0.554,-2.901 -1.661,-4.008 -1.107,-1.107 -2.672,-1.661 -4.009,-1.661 -1.336,0 -2.901,0.554 -4.008,1.661 -1.107,1.107 -1.661,2.672 -1.661,4.008 0,1.337 0.554,2.902 1.661,4.009 1.107,1.107 2.672,1.661 4.008,1.661 1.337,0 2.902,-0.554 4.009,-1.661 1.107,-1.107 1.661,-2.672 1.661,-4.009 m 240.945,0 c 0,-1.336 -0.554,-2.901 -1.661,-4.008 -1.107,-1.107 -2.672,-1.661 -4.009,-1.661 -1.336,0 -2.901,0.554 -4.008,1.661 -1.107,1.107 -1.661,2.672 -1.661,4.008 0,1.337 0.554,2.902 1.661,4.009 1.107,1.107 2.672,1.661 4.008,1.661 1.337,0 2.902,-0.554 4.009,-1.661 1.107,-1.107 1.661,-2.672 1.661,-4.009 M 55.276,148.819 c 0,-1.336 -0.554,-2.902 -1.661,-4.009 -1.107,-1.107 -2.672,-1.66 -4.009,-1.66 -1.336,0 -2.901,0.553 -4.008,1.66 -1.107,1.107 -1.661,2.673 -1.661,4.009 0,1.336 0.554,2.902 1.661,4.009 1.107,1.107 2.672,1.66 4.008,1.66 1.337,0 2.902,-0.553 4.009,-1.66 1.107,-1.107 1.661,-2.673 1.661,-4.009 m 198.425,0 c 0,-1.336 -0.554,-2.902 -1.661,-4.009 -1.107,-1.107 -2.672,-1.66 -4.009,-1.66 -1.336,0 -2.901,0.553 -4.008,1.66 -1.107,1.107 -1.661,2.673 -1.661,4.009 0,1.336 0.554,2.902 1.661,4.009 1.107,1.107 2.672,1.66 4.008,1.66 1.337,0 2.902,-0.553 4.009,-1.66 1.107,-1.107 1.661,-2.673 1.661,-4.009 m 0,-99.213 c 0,-1.336 -0.554,-2.901 -1.661,-4.008 -1.107,-1.107 -2.672,-1.661 -4.009,-1.661 -1.336,0 -2.901,0.554 -4.008,1.661 -1.107,1.107 -1.661,2.672 -1.661,4.008 0,1.337 0.554,2.902 1.661,4.009 1.107,1.107 2.672,1.661 4.008,1.661 1.337,0 2.902,-0.554 4.009,-1.661 1.107,-1.107 1.661,-2.672 1.661,-4.009 m -198.425,0 c 0,-1.336 -0.554,-2.901 -1.661,-4.008 -1.107,-1.107 -2.672,-1.661 -4.009,-1.661 -1.336,0 -2.901,0.554 -4.008,1.661 -1.107,1.107 -1.661,2.672 -1.661,4.008 0,1.337 0.554,2.902 1.661,4.009 1.107,1.107 2.672,1.661 4.008,1.661 1.337,0 2.902,-0.554 4.009,-1.661 1.107,-1.107 1.661,-2.672 1.661,-4.009"
       style="fill:none;stroke:#000000;stroke-width:0.78299999;stroke-linecap:round;stroke-linejoin:round;stroke-miterlimit:10;stroke-dasharray:none;stroke-opacity:1"
       id="path825"
       inkscape:connector-curvature="0" /></g></svg>