<?xml version="1.0" encoding="UTF-8" standalone="no"?>
<!-- Created with Inkscape (http://www.inkscape.org/) -->

<svg
   xmlns:dc="http://purl.org/dc/elements/1.1/"
   xmlns:cc="http://creativecommons.org/ns#"
   xmlns:rdf="http://www.w3.org/1999/02/22-rdf-syntax-ns#"
   xmlns:svg="http://www.w3.org/2000/svg"
   xmlns="http://www.w3.org/2000/svg"
   xmlns:sodipodi="http://sodipodi.sourceforge.net/DTD/sodipodi-0.dtd"
   xmlns:inkscape="http://www.inkscape.org/namespaces/inkscape"
   version="1.1"
   id="svg815"
   xml:space="preserve"
   width="253.228"
   height="309.92133"
   viewBox="0 0 253.228 309.92133"
   sodipodi:docname="protection_raspberry.svg"
   inkscape:version="0.92.3 (2405546, 2018-03-11)"><metadata
     id="metadata821"><rdf:RDF><cc:Work
         rdf:about=""><dc:format>image/svg+xml</dc:format><dc:type
           rdf:resource="http://purl.org/dc/dcmitype/StillImage" /><dc:title></dc:title></cc:Work></rdf:RDF></metadata><defs
     id="defs819" /><sodipodi:namedview
     pagecolor="#ffffff"
     bordercolor="#666666"
     borderopacity="1"
     objecttolerance="10"
     gridtolerance="10"
     guidetolerance="10"
     inkscape:pageopacity="0"
     inkscape:pageshadow="2"
     inkscape:window-width="1600"
     inkscape:window-height="836"
     id="namedview817"
     showgrid="false"
     inkscape:zoom="2.1166662"
     inkscape:cx="126.614"
     inkscape:cy="154.96066"
     inkscape:window-x="0"
     inkscape:window-y="27"
     inkscape:window-maximized="1"
     inkscape:current-layer="g823" /><g
     id="g823"
     inkscape:groupmode="layer"
     inkscape:label="protection_raspberry"
     transform="matrix(1.3333333,0,0,-1.3333333,0,309.92133)"><path
       d="m 62.362,189.921 v 28.347 H 14.173 V 143.15 H 51.024 V 89.291 H 93.543 V 75.118 H 62.362 V 43.937 H 14.173 V 14.173 h 8.504 v 8.504 H 70.866 V 14.173 H 175.748 V 42.52 h -22.677 v 147.401 h 22.677 v 28.347 H 127.559 V 189.921 H 62.362 m -31.181,8.504 c 0,-1.336 -0.553,-2.902 -1.66,-4.009 -1.107,-1.107 -2.673,-1.66 -4.009,-1.66 -1.336,0 -2.902,0.553 -4.009,1.66 -1.107,1.107 -1.66,2.673 -1.66,4.009 0,1.336 0.553,2.902 1.66,4.009 1.107,1.107 2.673,1.66 4.009,1.66 1.336,0 2.902,-0.553 4.009,-1.66 1.107,-1.107 1.66,-2.673 1.66,-4.009 m 138.898,0 c 0,-1.336 -0.554,-2.902 -1.661,-4.009 -1.107,-1.107 -2.672,-1.66 -4.009,-1.66 -1.336,0 -2.901,0.553 -4.008,1.66 -1.107,1.107 -1.661,2.673 -1.661,4.009 0,1.336 0.554,2.902 1.661,4.009 1.107,1.107 2.672,1.66 4.008,1.66 1.337,0 2.902,-0.553 4.009,-1.66 1.107,-1.107 1.661,-2.673 1.661,-4.009 M 31.181,34.016 c 0,-1.337 -0.553,-2.902 -1.66,-4.009 -1.107,-1.107 -2.673,-1.661 -4.009,-1.661 -1.336,0 -2.902,0.554 -4.009,1.661 -1.107,1.107 -1.66,2.672 -1.66,4.009 0,1.336 0.553,2.902 1.66,4.009 1.107,1.107 2.673,1.66 4.009,1.66 1.336,0 2.902,-0.553 4.009,-1.66 1.107,-1.107 1.66,-2.673 1.66,-4.009 m 138.898,0 c 0,-1.337 -0.554,-2.902 -1.661,-4.009 -1.107,-1.107 -2.672,-1.661 -4.009,-1.661 -1.336,0 -2.901,0.554 -4.008,1.661 -1.107,1.107 -1.661,2.672 -1.661,4.009 0,1.336 0.554,2.902 1.661,4.009 1.107,1.107 2.672,1.66 4.008,1.66 1.337,0 2.902,-0.553 4.009,-1.66 1.107,-1.107 1.661,-2.673 1.661,-4.009 M 79.37,157.89 c 0,-0.668 -0.749,-1.418 -1.417,-1.418 -0.668,0 -1.418,0.75 -1.418,1.418 0,0.668 0.75,1.417 1.418,1.417 0.668,0 1.417,-0.749 1.417,-1.417 m 4.724,0 c 0,-0.668 -0.749,-1.418 -1.417,-1.418 -0.668,0 -1.417,0.75 -1.417,1.418 0,0.668 0.749,1.417 1.417,1.417 0.668,0 1.417,-0.749 1.417,-1.417 m 4.725,0 c 0,-0.668 -0.749,-1.418 -1.417,-1.418 -0.669,0 -1.418,0.75 -1.418,1.418 0,0.668 0.749,1.417 1.418,1.417 0.668,0 1.417,-0.749 1.417,-1.417 m 4.724,0 c 0,-0.668 -0.749,-1.418 -1.417,-1.418 -0.668,0 -1.417,0.75 -1.417,1.418 0,0.668 0.749,1.417 1.417,1.417 0.668,0 1.417,-0.749 1.417,-1.417 m 4.725,0 c 0,-0.668 -0.749,-1.418 -1.418,-1.418 -0.668,0 -1.417,0.75 -1.417,1.418 0,0.668 0.749,1.417 1.417,1.417 0.669,0 1.418,-0.749 1.418,-1.417 m 0,-4.725 c 0,-0.668 -0.749,-1.417 -1.418,-1.417 -0.668,0 -1.417,0.749 -1.417,1.417 0,0.668 0.749,1.418 1.417,1.418 0.669,0 1.418,-0.75 1.418,-1.418 m -4.725,0 c 0,-0.668 -0.749,-1.417 -1.417,-1.417 -0.668,0 -1.417,0.749 -1.417,1.417 0,0.668 0.749,1.418 1.417,1.418 0.668,0 1.417,-0.75 1.417,-1.418 m -4.724,0 c 0,-0.668 -0.749,-1.417 -1.417,-1.417 -0.669,0 -1.418,0.749 -1.418,1.417 0,0.668 0.749,1.418 1.418,1.418 0.668,0 1.417,-0.75 1.417,-1.418 m -4.725,0 c 0,-0.668 -0.749,-1.417 -1.417,-1.417 -0.668,0 -1.417,0.749 -1.417,1.417 0,0.668 0.749,1.418 1.417,1.418 0.668,0 1.417,-0.75 1.417,-1.418 m -4.724,0 c 0,-0.668 -0.749,-1.417 -1.417,-1.417 -0.668,0 -1.418,0.749 -1.418,1.417 0,0.668 0.75,1.418 1.418,1.418 0.668,0 1.417,-0.75 1.417,-1.418 m 0,-4.724 c 0,-0.668 -0.749,-1.417 -1.417,-1.417 -0.668,0 -1.418,0.749 -1.418,1.417 0,0.668 0.75,1.417 1.418,1.417 0.668,0 1.417,-0.749 1.417,-1.417 m 4.724,0 c 0,-0.668 -0.749,-1.417 -1.417,-1.417 -0.668,0 -1.417,0.749 -1.417,1.417 0,0.668 0.749,1.417 1.417,1.417 0.668,0 1.417,-0.749 1.417,-1.417 m 4.725,0 c 0,-0.668 -0.749,-1.417 -1.417,-1.417 -0.669,0 -1.418,0.749 -1.418,1.417 0,0.668 0.749,1.417 1.418,1.417 0.668,0 1.417,-0.749 1.417,-1.417 m 4.724,0 c 0,-0.668 -0.749,-1.417 -1.417,-1.417 -0.668,0 -1.417,0.749 -1.417,1.417 0,0.668 0.749,1.417 1.417,1.417 0.668,0 1.417,-0.749 1.417,-1.417 m 4.725,0 c 0,-0.668 -0.749,-1.417 -1.418,-1.417 -0.668,0 -1.417,0.749 -1.417,1.417 0,0.668 0.749,1.417 1.417,1.417 0.669,0 1.418,-0.749 1.418,-1.417 m 0,-4.724 c 0,-0.669 -0.749,-1.418 -1.418,-1.418 -0.668,0 -1.417,0.749 -1.417,1.418 0,0.668 0.749,1.417 1.417,1.417 0.669,0 1.418,-0.749 1.418,-1.417 m -4.725,0 c 0,-0.669 -0.749,-1.418 -1.417,-1.418 -0.668,0 -1.417,0.749 -1.417,1.418 0,0.668 0.749,1.417 1.417,1.417 0.668,0 1.417,-0.749 1.417,-1.417 m -4.724,0 c 0,-0.669 -0.749,-1.418 -1.417,-1.418 -0.669,0 -1.418,0.749 -1.418,1.418 0,0.668 0.749,1.417 1.418,1.417 0.668,0 1.417,-0.749 1.417,-1.417 m -4.725,0 c 0,-0.669 -0.749,-1.418 -1.417,-1.418 -0.668,0 -1.417,0.749 -1.417,1.418 0,0.668 0.749,1.417 1.417,1.417 0.668,0 1.417,-0.749 1.417,-1.417 m -4.724,0 c 0,-0.669 -0.749,-1.418 -1.417,-1.418 -0.668,0 -1.418,0.749 -1.418,1.418 0,0.668 0.75,1.417 1.418,1.417 0.668,0 1.417,-0.749 1.417,-1.417 m 0,-4.725 c 0,-0.668 -0.749,-1.417 -1.417,-1.417 -0.668,0 -1.418,0.749 -1.418,1.417 0,0.668 0.75,1.417 1.418,1.417 0.668,0 1.417,-0.749 1.417,-1.417 m 4.724,0 c 0,-0.668 -0.749,-1.417 -1.417,-1.417 -0.668,0 -1.417,0.749 -1.417,1.417 0,0.668 0.749,1.417 1.417,1.417 0.668,0 1.417,-0.749 1.417,-1.417 m 4.725,0 c 0,-0.668 -0.749,-1.417 -1.417,-1.417 -0.669,0 -1.418,0.749 -1.418,1.417 0,0.668 0.749,1.417 1.418,1.417 0.668,0 1.417,-0.749 1.417,-1.417 m 4.724,0 c 0,-0.668 -0.749,-1.417 -1.417,-1.417 -0.668,0 -1.417,0.749 -1.417,1.417 0,0.668 0.749,1.417 1.417,1.417 0.668,0 1.417,-0.749 1.417,-1.417 m 4.725,0 c 0,-0.668 -0.749,-1.417 -1.418,-1.417 -0.668,0 -1.417,0.749 -1.417,1.417 0,0.668 0.749,1.417 1.417,1.417 0.669,0 1.418,-0.749 1.418,-1.417 m 4.724,18.898 c 0,-0.668 -0.749,-1.418 -1.417,-1.418 -0.668,0 -1.418,0.75 -1.418,1.418 0,0.668 0.75,1.417 1.418,1.417 0.668,0 1.417,-0.749 1.417,-1.417 m 4.725,0 c 0,-0.668 -0.75,-1.418 -1.418,-1.418 -0.668,0 -1.417,0.75 -1.417,1.418 0,0.668 0.749,1.417 1.417,1.417 0.668,0 1.418,-0.749 1.418,-1.417 m 4.724,0 c 0,-0.668 -0.749,-1.418 -1.417,-1.418 -0.669,0 -1.418,0.75 -1.418,1.418 0,0.668 0.749,1.417 1.418,1.417 0.668,0 1.417,-0.749 1.417,-1.417 m 4.724,0 c 0,-0.668 -0.749,-1.418 -1.417,-1.418 -0.668,0 -1.417,0.75 -1.417,1.418 0,0.668 0.749,1.417 1.417,1.417 0.668,0 1.417,-0.749 1.417,-1.417 m 4.725,0 c 0,-0.668 -0.749,-1.418 -1.418,-1.418 -0.668,0 -1.417,0.75 -1.417,1.418 0,0.668 0.749,1.417 1.417,1.417 0.669,0 1.418,-0.749 1.418,-1.417 m 0,-4.725 c 0,-0.668 -0.749,-1.417 -1.418,-1.417 -0.668,0 -1.417,0.749 -1.417,1.417 0,0.668 0.749,1.418 1.417,1.418 0.669,0 1.418,-0.75 1.418,-1.418 m -4.725,0 c 0,-0.668 -0.749,-1.417 -1.417,-1.417 -0.668,0 -1.417,0.749 -1.417,1.417 0,0.668 0.749,1.418 1.417,1.418 0.668,0 1.417,-0.75 1.417,-1.418 m -4.724,0 c 0,-0.668 -0.749,-1.417 -1.417,-1.417 -0.669,0 -1.418,0.749 -1.418,1.417 0,0.668 0.749,1.418 1.418,1.418 0.668,0 1.417,-0.75 1.417,-1.418 m -4.724,0 c 0,-0.668 -0.75,-1.417 -1.418,-1.417 -0.668,0 -1.417,0.749 -1.417,1.417 0,0.668 0.749,1.418 1.417,1.418 0.668,0 1.418,-0.75 1.418,-1.418 m -4.725,0 c 0,-0.668 -0.749,-1.417 -1.417,-1.417 -0.668,0 -1.418,0.749 -1.418,1.417 0,0.668 0.75,1.418 1.418,1.418 0.668,0 1.417,-0.75 1.417,-1.418 m 0,-4.724 c 0,-0.668 -0.749,-1.417 -1.417,-1.417 -0.668,0 -1.418,0.749 -1.418,1.417 0,0.668 0.75,1.417 1.418,1.417 0.668,0 1.417,-0.749 1.417,-1.417 m 4.725,0 c 0,-0.668 -0.75,-1.417 -1.418,-1.417 -0.668,0 -1.417,0.749 -1.417,1.417 0,0.668 0.749,1.417 1.417,1.417 0.668,0 1.418,-0.749 1.418,-1.417 m 4.724,0 c 0,-0.668 -0.749,-1.417 -1.417,-1.417 -0.669,0 -1.418,0.749 -1.418,1.417 0,0.668 0.749,1.417 1.418,1.417 0.668,0 1.417,-0.749 1.417,-1.417 m 4.724,0 c 0,-0.668 -0.749,-1.417 -1.417,-1.417 -0.668,0 -1.417,0.749 -1.417,1.417 0,0.668 0.749,1.417 1.417,1.417 0.668,0 1.417,-0.749 1.417,-1.417 m 4.725,0 c 0,-0.668 -0.749,-1.417 -1.418,-1.417 -0.668,0 -1.417,0.749 -1.417,1.417 0,0.668 0.749,1.417 1.417,1.417 0.669,0 1.418,-0.749 1.418,-1.417 m 0,-4.724 c 0,-0.669 -0.749,-1.418 -1.418,-1.418 -0.668,0 -1.417,0.749 -1.417,1.418 0,0.668 0.749,1.417 1.417,1.417 0.669,0 1.418,-0.749 1.418,-1.417 m -4.725,0 c 0,-0.669 -0.749,-1.418 -1.417,-1.418 -0.668,0 -1.417,0.749 -1.417,1.418 0,0.668 0.749,1.417 1.417,1.417 0.668,0 1.417,-0.749 1.417,-1.417 m -4.724,0 c 0,-0.669 -0.749,-1.418 -1.417,-1.418 -0.669,0 -1.418,0.749 -1.418,1.418 0,0.668 0.749,1.417 1.418,1.417 0.668,0 1.417,-0.749 1.417,-1.417 m -4.724,0 c 0,-0.669 -0.75,-1.418 -1.418,-1.418 -0.668,0 -1.417,0.749 -1.417,1.418 0,0.668 0.749,1.417 1.417,1.417 0.668,0 1.418,-0.749 1.418,-1.417 m -4.725,0 c 0,-0.669 -0.749,-1.418 -1.417,-1.418 -0.668,0 -1.418,0.749 -1.418,1.418 0,0.668 0.75,1.417 1.418,1.417 0.668,0 1.417,-0.749 1.417,-1.417 m 0,-4.725 c 0,-0.668 -0.749,-1.417 -1.417,-1.417 -0.668,0 -1.418,0.749 -1.418,1.417 0,0.668 0.75,1.417 1.418,1.417 0.668,0 1.417,-0.749 1.417,-1.417 m 4.725,0 c 0,-0.668 -0.75,-1.417 -1.418,-1.417 -0.668,0 -1.417,0.749 -1.417,1.417 0,0.668 0.749,1.417 1.417,1.417 0.668,0 1.418,-0.749 1.418,-1.417 m 4.724,0 c 0,-0.668 -0.749,-1.417 -1.417,-1.417 -0.669,0 -1.418,0.749 -1.418,1.417 0,0.668 0.749,1.417 1.418,1.417 0.668,0 1.417,-0.749 1.417,-1.417 m 4.724,0 c 0,-0.668 -0.749,-1.417 -1.417,-1.417 -0.668,0 -1.417,0.749 -1.417,1.417 0,0.668 0.749,1.417 1.417,1.417 0.668,0 1.417,-0.749 1.417,-1.417 m 4.725,0 c 0,-0.668 -0.749,-1.417 -1.418,-1.417 -0.668,0 -1.417,0.749 -1.417,1.417 0,0.668 0.749,1.417 1.417,1.417 0.669,0 1.418,-0.749 1.418,-1.417 m -42.52,-4.724 c 0,-0.668 -0.749,-1.418 -1.417,-1.418 -0.668,0 -1.418,0.75 -1.418,1.418 0,0.668 0.75,1.417 1.418,1.417 0.668,0 1.417,-0.749 1.417,-1.417 m 4.724,0 c 0,-0.668 -0.749,-1.418 -1.417,-1.418 -0.668,0 -1.417,0.75 -1.417,1.418 0,0.668 0.749,1.417 1.417,1.417 0.668,0 1.417,-0.749 1.417,-1.417 m 4.725,0 c 0,-0.668 -0.749,-1.418 -1.417,-1.418 -0.669,0 -1.418,0.75 -1.418,1.418 0,0.668 0.749,1.417 1.418,1.417 0.668,0 1.417,-0.749 1.417,-1.417 m 4.724,0 c 0,-0.668 -0.749,-1.418 -1.417,-1.418 -0.668,0 -1.417,0.75 -1.417,1.418 0,0.668 0.749,1.417 1.417,1.417 0.668,0 1.417,-0.749 1.417,-1.417 m 4.725,0 c 0,-0.668 -0.749,-1.418 -1.418,-1.418 -0.668,0 -1.417,0.75 -1.417,1.418 0,0.668 0.749,1.417 1.417,1.417 0.669,0 1.418,-0.749 1.418,-1.417 m 0,-4.725 c 0,-0.668 -0.749,-1.417 -1.418,-1.417 -0.668,0 -1.417,0.749 -1.417,1.417 0,0.668 0.749,1.418 1.417,1.418 0.669,0 1.418,-0.75 1.418,-1.418 m -4.725,0 c 0,-0.668 -0.749,-1.417 -1.417,-1.417 -0.668,0 -1.417,0.749 -1.417,1.417 0,0.668 0.749,1.418 1.417,1.418 0.668,0 1.417,-0.75 1.417,-1.418 m -4.724,0 c 0,-0.668 -0.749,-1.417 -1.417,-1.417 -0.669,0 -1.418,0.749 -1.418,1.417 0,0.668 0.749,1.418 1.418,1.418 0.668,0 1.417,-0.75 1.417,-1.418 m -4.725,0 c 0,-0.668 -0.749,-1.417 -1.417,-1.417 -0.668,0 -1.417,0.749 -1.417,1.417 0,0.668 0.749,1.418 1.417,1.418 0.668,0 1.417,-0.75 1.417,-1.418 m -4.724,0 c 0,-0.668 -0.749,-1.417 -1.417,-1.417 -0.668,0 -1.418,0.749 -1.418,1.417 0,0.668 0.75,1.418 1.418,1.418 0.668,0 1.417,-0.75 1.417,-1.418 m 0,-4.724 c 0,-0.668 -0.749,-1.417 -1.417,-1.417 -0.668,0 -1.418,0.749 -1.418,1.417 0,0.668 0.75,1.417 1.418,1.417 0.668,0 1.417,-0.749 1.417,-1.417 m 4.724,0 c 0,-0.668 -0.749,-1.417 -1.417,-1.417 -0.668,0 -1.417,0.749 -1.417,1.417 0,0.668 0.749,1.417 1.417,1.417 0.668,0 1.417,-0.749 1.417,-1.417 m 4.725,0 c 0,-0.668 -0.749,-1.417 -1.417,-1.417 -0.669,0 -1.418,0.749 -1.418,1.417 0,0.668 0.749,1.417 1.418,1.417 0.668,0 1.417,-0.749 1.417,-1.417 m 4.724,0 c 0,-0.668 -0.749,-1.417 -1.417,-1.417 -0.668,0 -1.417,0.749 -1.417,1.417 0,0.668 0.749,1.417 1.417,1.417 0.668,0 1.417,-0.749 1.417,-1.417 m 4.725,0 c 0,-0.668 -0.749,-1.417 -1.418,-1.417 -0.668,0 -1.417,0.749 -1.417,1.417 0,0.668 0.749,1.417 1.417,1.417 0.669,0 1.418,-0.749 1.418,-1.417 m 0,-4.725 c 0,-0.668 -0.749,-1.417 -1.418,-1.417 -0.668,0 -1.417,0.749 -1.417,1.417 0,0.669 0.749,1.418 1.417,1.418 0.669,0 1.418,-0.749 1.418,-1.418 m -4.725,0 c 0,-0.668 -0.749,-1.417 -1.417,-1.417 -0.668,0 -1.417,0.749 -1.417,1.417 0,0.669 0.749,1.418 1.417,1.418 0.668,0 1.417,-0.749 1.417,-1.418 m -4.724,0 c 0,-0.668 -0.749,-1.417 -1.417,-1.417 -0.669,0 -1.418,0.749 -1.418,1.417 0,0.669 0.749,1.418 1.418,1.418 0.668,0 1.417,-0.749 1.417,-1.418 m -4.725,0 c 0,-0.668 -0.749,-1.417 -1.417,-1.417 -0.668,0 -1.417,0.749 -1.417,1.417 0,0.669 0.749,1.418 1.417,1.418 0.668,0 1.417,-0.749 1.417,-1.418 m -4.724,0 c 0,-0.668 -0.749,-1.417 -1.417,-1.417 -0.668,0 -1.418,0.749 -1.418,1.417 0,0.669 0.75,1.418 1.418,1.418 0.668,0 1.417,-0.749 1.417,-1.418 m 0,-4.724 c 0,-0.668 -0.749,-1.417 -1.417,-1.417 -0.668,0 -1.418,0.749 -1.418,1.417 0,0.668 0.75,1.417 1.418,1.417 0.668,0 1.417,-0.749 1.417,-1.417 m 4.724,0 c 0,-0.668 -0.749,-1.417 -1.417,-1.417 -0.668,0 -1.417,0.749 -1.417,1.417 0,0.668 0.749,1.417 1.417,1.417 0.668,0 1.417,-0.749 1.417,-1.417 m 4.725,0 c 0,-0.668 -0.749,-1.417 -1.417,-1.417 -0.669,0 -1.418,0.749 -1.418,1.417 0,0.668 0.749,1.417 1.418,1.417 0.668,0 1.417,-0.749 1.417,-1.417 m 4.724,0 c 0,-0.668 -0.749,-1.417 -1.417,-1.417 -0.668,0 -1.417,0.749 -1.417,1.417 0,0.668 0.749,1.417 1.417,1.417 0.668,0 1.417,-0.749 1.417,-1.417 m 4.725,0 c 0,-0.668 -0.749,-1.417 -1.418,-1.417 -0.668,0 -1.417,0.749 -1.417,1.417 0,0.668 0.749,1.417 1.417,1.417 0.669,0 1.418,-0.749 1.418,-1.417 m 4.724,18.898 c 0,-0.668 -0.749,-1.418 -1.417,-1.418 -0.668,0 -1.418,0.75 -1.418,1.418 0,0.668 0.75,1.417 1.418,1.417 0.668,0 1.417,-0.749 1.417,-1.417 m 4.725,0 c 0,-0.668 -0.75,-1.418 -1.418,-1.418 -0.668,0 -1.417,0.75 -1.417,1.418 0,0.668 0.749,1.417 1.417,1.417 0.668,0 1.418,-0.749 1.418,-1.417 m 4.724,0 c 0,-0.668 -0.749,-1.418 -1.417,-1.418 -0.669,0 -1.418,0.75 -1.418,1.418 0,0.668 0.749,1.417 1.418,1.417 0.668,0 1.417,-0.749 1.417,-1.417 m 4.724,0 c 0,-0.668 -0.749,-1.418 -1.417,-1.418 -0.668,0 -1.417,0.75 -1.417,1.418 0,0.668 0.749,1.417 1.417,1.417 0.668,0 1.417,-0.749 1.417,-1.417 m 4.725,0 c 0,-0.668 -0.749,-1.418 -1.418,-1.418 -0.668,0 -1.417,0.75 -1.417,1.418 0,0.668 0.749,1.417 1.417,1.417 0.669,0 1.418,-0.749 1.418,-1.417 m 0,-4.725 c 0,-0.668 -0.749,-1.417 -1.418,-1.417 -0.668,0 -1.417,0.749 -1.417,1.417 0,0.668 0.749,1.418 1.417,1.418 0.669,0 1.418,-0.75 1.418,-1.418 m -4.725,0 c 0,-0.668 -0.749,-1.417 -1.417,-1.417 -0.668,0 -1.417,0.749 -1.417,1.417 0,0.668 0.749,1.418 1.417,1.418 0.668,0 1.417,-0.75 1.417,-1.418 m -4.724,0 c 0,-0.668 -0.749,-1.417 -1.417,-1.417 -0.669,0 -1.418,0.749 -1.418,1.417 0,0.668 0.749,1.418 1.418,1.418 0.668,0 1.417,-0.75 1.417,-1.418 m -4.724,0 c 0,-0.668 -0.75,-1.417 -1.418,-1.417 -0.668,0 -1.417,0.749 -1.417,1.417 0,0.668 0.749,1.418 1.417,1.418 0.668,0 1.418,-0.75 1.418,-1.418 m -4.725,0 c 0,-0.668 -0.749,-1.417 -1.417,-1.417 -0.668,0 -1.418,0.749 -1.418,1.417 0,0.668 0.75,1.418 1.418,1.418 0.668,0 1.417,-0.75 1.417,-1.418 m 0,-4.724 c 0,-0.668 -0.749,-1.417 -1.417,-1.417 -0.668,0 -1.418,0.749 -1.418,1.417 0,0.668 0.75,1.417 1.418,1.417 0.668,0 1.417,-0.749 1.417,-1.417 m 4.725,0 c 0,-0.668 -0.75,-1.417 -1.418,-1.417 -0.668,0 -1.417,0.749 -1.417,1.417 0,0.668 0.749,1.417 1.417,1.417 0.668,0 1.418,-0.749 1.418,-1.417 m 4.724,0 c 0,-0.668 -0.749,-1.417 -1.417,-1.417 -0.669,0 -1.418,0.749 -1.418,1.417 0,0.668 0.749,1.417 1.418,1.417 0.668,0 1.417,-0.749 1.417,-1.417 m 4.724,0 c 0,-0.668 -0.749,-1.417 -1.417,-1.417 -0.668,0 -1.417,0.749 -1.417,1.417 0,0.668 0.749,1.417 1.417,1.417 0.668,0 1.417,-0.749 1.417,-1.417 m 4.725,0 c 0,-0.668 -0.749,-1.417 -1.418,-1.417 -0.668,0 -1.417,0.749 -1.417,1.417 0,0.668 0.749,1.417 1.417,1.417 0.669,0 1.418,-0.749 1.418,-1.417 m 0,-4.725 c 0,-0.668 -0.749,-1.417 -1.418,-1.417 -0.668,0 -1.417,0.749 -1.417,1.417 0,0.669 0.749,1.418 1.417,1.418 0.669,0 1.418,-0.749 1.418,-1.418 m -4.725,0 c 0,-0.668 -0.749,-1.417 -1.417,-1.417 -0.668,0 -1.417,0.749 -1.417,1.417 0,0.669 0.749,1.418 1.417,1.418 0.668,0 1.417,-0.749 1.417,-1.418 m -4.724,0 c 0,-0.668 -0.749,-1.417 -1.417,-1.417 -0.669,0 -1.418,0.749 -1.418,1.417 0,0.669 0.749,1.418 1.418,1.418 0.668,0 1.417,-0.749 1.417,-1.418 m -4.724,0 c 0,-0.668 -0.75,-1.417 -1.418,-1.417 -0.668,0 -1.417,0.749 -1.417,1.417 0,0.669 0.749,1.418 1.417,1.418 0.668,0 1.418,-0.749 1.418,-1.418 m -4.725,0 c 0,-0.668 -0.749,-1.417 -1.417,-1.417 -0.668,0 -1.418,0.749 -1.418,1.417 0,0.669 0.75,1.418 1.418,1.418 0.668,0 1.417,-0.749 1.417,-1.418 m 0,-4.724 c 0,-0.668 -0.749,-1.417 -1.417,-1.417 -0.668,0 -1.418,0.749 -1.418,1.417 0,0.668 0.75,1.417 1.418,1.417 0.668,0 1.417,-0.749 1.417,-1.417 m 4.725,0 c 0,-0.668 -0.75,-1.417 -1.418,-1.417 -0.668,0 -1.417,0.749 -1.417,1.417 0,0.668 0.749,1.417 1.417,1.417 0.668,0 1.418,-0.749 1.418,-1.417 m 4.724,0 c 0,-0.668 -0.749,-1.417 -1.417,-1.417 -0.669,0 -1.418,0.749 -1.418,1.417 0,0.668 0.749,1.417 1.418,1.417 0.668,0 1.417,-0.749 1.417,-1.417 m 4.724,0 c 0,-0.668 -0.749,-1.417 -1.417,-1.417 -0.668,0 -1.417,0.749 -1.417,1.417 0,0.668 0.749,1.417 1.417,1.417 0.668,0 1.417,-0.749 1.417,-1.417 m 4.725,0 c 0,-0.668 -0.749,-1.417 -1.418,-1.417 -0.668,0 -1.417,0.749 -1.417,1.417 0,0.668 0.749,1.417 1.417,1.417 0.669,0 1.418,-0.749 1.418,-1.417"
       style="fill:none;stroke:#ff0000;stroke-width:0.28346458;stroke-linecap:round;stroke-linejoin:round;stroke-miterlimit:10;stroke-dasharray:none;stroke-opacity:1"
       id="path825"
       inkscape:connector-curvature="0" /></g></svg>