<?xml version="1.0" encoding="UTF-8" standalone="no"?>
<!-- Created with Inkscape (http://www.inkscape.org/) -->

<svg
   xmlns:dc="http://purl.org/dc/elements/1.1/"
   xmlns:cc="http://creativecommons.org/ns#"
   xmlns:rdf="http://www.w3.org/1999/02/22-rdf-syntax-ns#"
   xmlns:svg="http://www.w3.org/2000/svg"
   xmlns="http://www.w3.org/2000/svg"
   xmlns:sodipodi="http://sodipodi.sourceforge.net/DTD/sodipodi-0.dtd"
   xmlns:inkscape="http://www.inkscape.org/namespaces/inkscape"
   version="1.1"
   id="svg894"
   xml:space="preserve"
   width="336.37732"
   height="264.56668"
   viewBox="0 0 336.37732 264.56668"
   sodipodi:docname="support_alim.svg"
   inkscape:version="0.92.3 (2405546, 2018-03-11)"><metadata
     id="metadata900"><rdf:RDF><cc:Work
         rdf:about=""><dc:format>image/svg+xml</dc:format><dc:type
           rdf:resource="http://purl.org/dc/dcmitype/StillImage" /><dc:title></dc:title></cc:Work></rdf:RDF></metadata><defs
     id="defs898" /><sodipodi:namedview
     pagecolor="#ffffff"
     bordercolor="#666666"
     borderopacity="1"
     objecttolerance="10"
     gridtolerance="10"
     guidetolerance="10"
     inkscape:pageopacity="0"
     inkscape:pageshadow="2"
     inkscape:window-width="1600"
     inkscape:window-height="836"
     id="namedview896"
     showgrid="false"
     inkscape:zoom="2.4795261"
     inkscape:cx="168.18866"
     inkscape:cy="132.28334"
     inkscape:window-x="0"
     inkscape:window-y="27"
     inkscape:window-maximized="1"
     inkscape:current-layer="g902" /><g
     id="g902"
     inkscape:groupmode="layer"
     inkscape:label="support_alim"
     transform="matrix(1.3333333,0,0,-1.3333333,0,264.56667)"><path
       d="M 238.11,184.252 H 14.173 V 14.173 H 238.11 V 184.252 M 31.181,155.906 c 0,-1.671 -0.692,-3.628 -2.076,-5.011 -1.383,-1.384 -3.34,-2.076 -5.011,-2.076 -1.67,0 -3.627,0.692 -5.011,2.076 -1.383,1.383 -2.075,3.34 -2.075,5.011 0,1.67 0.692,3.627 2.075,5.011 1.384,1.383 3.341,2.075 5.011,2.075 1.671,0 3.628,-0.692 5.011,-2.075 1.384,-1.384 2.076,-3.341 2.076,-5.011 m 204.095,0 c 0,-1.671 -0.692,-3.628 -2.076,-5.011 -1.384,-1.384 -3.341,-2.076 -5.011,-2.076 -1.67,0 -3.627,0.692 -5.011,2.076 -1.384,1.383 -2.076,3.34 -2.076,5.011 0,1.67 0.692,3.627 2.076,5.011 1.384,1.383 3.341,2.075 5.011,2.075 1.67,0 3.627,-0.692 5.011,-2.075 1.384,-1.384 2.076,-3.341 2.076,-5.011 M 31.181,42.52 c 0,-1.671 -0.692,-3.628 -2.076,-5.011 -1.383,-1.384 -3.34,-2.076 -5.011,-2.076 -1.67,0 -3.627,0.692 -5.011,2.076 -1.383,1.383 -2.075,3.34 -2.075,5.011 0,1.67 0.692,3.627 2.075,5.011 1.384,1.383 3.341,2.075 5.011,2.075 1.671,0 3.628,-0.692 5.011,-2.075 1.384,-1.384 2.076,-3.341 2.076,-5.011 m 204.095,0 c 0,-1.671 -0.692,-3.628 -2.076,-5.011 -1.384,-1.384 -3.341,-2.076 -5.011,-2.076 -1.67,0 -3.627,0.692 -5.011,2.076 -1.384,1.383 -2.076,3.34 -2.076,5.011 0,1.67 0.692,3.627 2.076,5.011 1.384,1.383 3.341,2.075 5.011,2.075 1.67,0 3.627,-0.692 5.011,-2.075 1.384,-1.384 2.076,-3.341 2.076,-5.011 m -185.67,94.96 c 0,-1.67 -0.692,-3.627 -2.075,-5.011 -1.384,-1.383 -3.341,-2.075 -5.011,-2.075 -1.671,0 -3.628,0.692 -5.011,2.075 -1.384,1.384 -2.076,3.341 -2.076,5.011 0,1.671 0.692,3.628 2.076,5.011 1.383,1.384 3.34,2.076 5.011,2.076 1.67,0 3.627,-0.692 5.011,-2.076 1.383,-1.383 2.075,-3.34 2.075,-5.011 m 167.244,0 c 0,-1.67 -0.691,-3.627 -2.075,-5.011 -1.384,-1.383 -3.341,-2.075 -5.011,-2.075 -1.671,0 -3.627,0.692 -5.011,2.075 -1.384,1.384 -2.076,3.341 -2.076,5.011 0,1.671 0.692,3.628 2.076,5.011 1.384,1.384 3.34,2.076 5.011,2.076 1.67,0 3.627,-0.692 5.011,-2.076 1.384,-1.383 2.075,-3.34 2.075,-5.011 m 0,-76.535 c 0,-1.67 -0.691,-3.627 -2.075,-5.011 -1.384,-1.384 -3.341,-2.076 -5.011,-2.076 -1.671,0 -3.627,0.692 -5.011,2.076 -1.384,1.384 -2.076,3.341 -2.076,5.011 0,1.67 0.692,3.627 2.076,5.011 1.384,1.384 3.34,2.075 5.011,2.075 1.67,0 3.627,-0.691 5.011,-2.075 1.384,-1.384 2.075,-3.341 2.075,-5.011 m -167.244,0 c 0,-1.67 -0.692,-3.627 -2.075,-5.011 -1.384,-1.384 -3.341,-2.076 -5.011,-2.076 -1.671,0 -3.628,0.692 -5.011,2.076 -1.384,1.384 -2.076,3.341 -2.076,5.011 0,1.67 0.692,3.627 2.076,5.011 1.383,1.384 3.34,2.075 5.011,2.075 1.67,0 3.627,-0.691 5.011,-2.075 1.383,-1.384 2.075,-3.341 2.075,-5.011"
       style="fill:none;stroke:#ff0000;stroke-width:0.28346458;stroke-linecap:round;stroke-linejoin:round;stroke-miterlimit:10;stroke-dasharray:none;stroke-opacity:1"
       id="path904"
       inkscape:connector-curvature="0" /></g></svg>