<?xml version="1.0" encoding="UTF-8" standalone="no"?>
<!-- Created with Inkscape (http://www.inkscape.org/) -->

<svg
   xmlns:dc="http://purl.org/dc/elements/1.1/"
   xmlns:cc="http://creativecommons.org/ns#"
   xmlns:rdf="http://www.w3.org/1999/02/22-rdf-syntax-ns#"
   xmlns:svg="http://www.w3.org/2000/svg"
   xmlns="http://www.w3.org/2000/svg"
   xmlns:sodipodi="http://sodipodi.sourceforge.net/DTD/sodipodi-0.dtd"
   xmlns:inkscape="http://www.inkscape.org/namespaces/inkscape"
   version="1.1"
   id="svg834"
   xml:space="preserve"
   width="511.82266"
   height="256.69733"
   viewBox="0 0 511.82266 256.69733"
   sodipodi:docname="pieces_ensemble_support.svg"
   inkscape:version="0.92.3 (2405546, 2018-03-11)"><metadata
     id="metadata840"><rdf:RDF><cc:Work
         rdf:about=""><dc:format>image/svg+xml</dc:format><dc:type
           rdf:resource="http://purl.org/dc/dcmitype/StillImage" /><dc:title></dc:title></cc:Work></rdf:RDF></metadata><defs
     id="defs838" /><sodipodi:namedview
     pagecolor="#ffffff"
     bordercolor="#666666"
     borderopacity="1"
     objecttolerance="10"
     gridtolerance="10"
     guidetolerance="10"
     inkscape:pageopacity="0"
     inkscape:pageshadow="2"
     inkscape:window-width="1600"
     inkscape:window-height="836"
     id="namedview836"
     showgrid="false"
     inkscape:zoom="1.458913"
     inkscape:cx="239.86148"
     inkscape:cy="126.95306"
     inkscape:window-x="0"
     inkscape:window-y="27"
     inkscape:window-maximized="1"
     inkscape:current-layer="g842" /><g
     id="g842"
     inkscape:groupmode="layer"
     inkscape:label="pieces_ensemble_support"
     transform="matrix(1.3333333,0,0,-1.3333333,0,256.69733)"><path
       d="M 127.559,178.349 H 70.866 14.173 V 136.173 93.654 h 36.851 v 42.176 h 76.535 v 42.519 M 36.85,157.09 c 0,-1.003 -0.415,-2.177 -1.245,-3.007 -0.83,-0.83 -2.004,-1.245 -3.007,-1.245 -1.002,0 -2.176,0.415 -3.006,1.245 -0.83,0.83 -1.246,2.004 -1.246,3.007 0,1.002 0.416,2.176 1.246,3.006 0.83,0.83 2.004,1.246 3.006,1.246 1.003,0 2.177,-0.416 3.007,-1.246 0.83,-0.83 1.245,-2.004 1.245,-3.006 m 76.536,0 c 0,-1.003 -0.415,-2.177 -1.246,-3.007 -0.83,-0.83 -2.004,-1.245 -3.006,-1.245 -1.002,0 -2.176,0.415 -3.007,1.245 -0.83,0.83 -1.245,2.004 -1.245,3.007 0,1.002 0.415,2.176 1.245,3.006 0.831,0.83 2.005,1.246 3.007,1.246 1.002,0 2.176,-0.416 3.006,-1.246 0.831,-0.83 1.246,-2.004 1.246,-3.006 M 36.85,114.914 c 0,-1.003 -0.415,-2.177 -1.245,-3.007 -0.83,-0.83 -2.004,-1.245 -3.007,-1.245 -1.002,0 -2.176,0.415 -3.006,1.245 -0.83,0.83 -1.246,2.004 -1.246,3.007 0,1.002 0.416,2.176 1.246,3.006 0.83,0.83 2.004,1.245 3.006,1.245 1.003,0 2.177,-0.415 3.007,-1.245 0.83,-0.83 1.245,-2.004 1.245,-3.006"
       style="fill:none;stroke:#ff0000;stroke-width:0.28346458;stroke-linecap:round;stroke-linejoin:round;stroke-miterlimit:10;stroke-dasharray:none;stroke-opacity:1"
       id="path844"
       inkscape:connector-curvature="0" /><path
       d="M 369.694,155.409 H 135.836 v -36.85 h 233.858 v 36.85 M 161.348,136.984 c 0,-1.002 -0.416,-2.176 -1.246,-3.007 -0.83,-0.83 -2.004,-1.245 -3.006,-1.245 -1.003,0 -2.177,0.415 -3.007,1.245 -0.83,0.831 -1.245,2.005 -1.245,3.007 0,1.002 0.415,2.176 1.245,3.007 0.83,0.83 2.004,1.245 3.007,1.245 1.002,0 2.176,-0.415 3.006,-1.245 0.83,-0.831 1.246,-2.005 1.246,-3.007 m 194.173,-4.252 H 213.789 v 8.504 h 141.732 v -8.504"
       style="fill:none;stroke:#ff0000;stroke-width:0.28346458;stroke-linecap:round;stroke-linejoin:round;stroke-miterlimit:10;stroke-dasharray:none;stroke-opacity:1"
       id="path846"
       inkscape:connector-curvature="0" /><path
       d="m 34.026,40.31 25.977,-26.137 56.526,56.182 209.217,-0.638 0.113,36.851 -198.425,0.605 -12.988,13.068 -80.42,-79.931 m 260.415,44.921 c -0.707,0.711 -1.24,1.837 -1.237,3.011 0.004,1.174 0.544,2.296 1.255,3.003 0.711,0.706 1.836,1.239 3.01,1.236 1.174,-0.004 2.297,-0.544 3.003,-1.255 0.707,-0.711 1.24,-1.836 1.236,-3.01 -0.003,-1.174 -0.544,-2.296 -1.254,-3.003 -0.711,-0.706 -1.837,-1.24 -3.011,-1.236 -1.174,0.003 -2.296,0.544 -3.002,1.254 m -28.347,0.087 c -0.706,0.711 -1.24,1.836 -1.236,3.01 0.004,1.174 0.544,2.297 1.255,3.003 0.71,0.707 1.836,1.24 3.01,1.236 1.174,-0.003 2.296,-0.543 3.003,-1.254 0.706,-0.711 1.239,-1.837 1.236,-3.011 -0.004,-1.174 -0.544,-2.296 -1.255,-3.002 -0.71,-0.707 -1.836,-1.24 -3.01,-1.237 -1.174,0.004 -2.296,0.544 -3.003,1.255 M 54.051,34.235 c -0.706,0.711 -1.24,1.837 -1.236,3.011 0.004,1.174 0.544,2.296 1.255,3.003 0.71,0.706 1.836,1.239 3.01,1.236 1.174,-0.004 2.296,-0.544 3.003,-1.255 0.706,-0.711 1.24,-1.836 1.236,-3.01 -0.004,-1.174 -0.544,-2.296 -1.255,-3.003 -0.71,-0.706 -1.836,-1.24 -3.01,-1.236 -1.174,0.003 -2.296,0.544 -3.003,1.254"
       style="fill:none;stroke:#ff0000;stroke-width:0.28346458;stroke-linecap:round;stroke-linejoin:round;stroke-miterlimit:10;stroke-dasharray:none;stroke-opacity:1"
       id="path848"
       inkscape:connector-curvature="0" /><path
       d="m 249.973,19.214 v 36.85 h -99.212 v -36.85 h 99.212 m -9.921,18.425 c 0,-1.002 -0.415,-2.176 -1.245,-3.007 -0.831,-0.83 -2.005,-1.245 -3.007,-1.245 -1.002,0 -2.176,0.415 -3.007,1.245 -0.83,0.831 -1.245,2.005 -1.245,3.007 0,1.002 0.415,2.176 1.245,3.007 0.831,0.83 2.005,1.245 3.007,1.245 1.002,0 2.176,-0.415 3.007,-1.245 0.83,-0.831 1.245,-2.005 1.245,-3.007"
       style="fill:none;stroke:#ff0000;stroke-width:0.28346458;stroke-linecap:round;stroke-linejoin:round;stroke-miterlimit:10;stroke-dasharray:none;stroke-opacity:1"
       id="path850"
       inkscape:connector-curvature="0" /></g></svg>